<?xml version="1.0" encoding="utf-8"?>
<!-- Generator: Adobe Illustrator 15.0.0, SVG Export Plug-In . SVG Version: 6.00 Build 0)  -->
<!DOCTYPE svg PUBLIC "-//W3C//DTD SVG 1.1//EN" "http://www.w3.org/Graphics/SVG/1.1/DTD/svg11.dtd">
<svg version="1.1" id="Layer_1" xmlns="http://www.w3.org/2000/svg" xmlns:xlink="http://www.w3.org/1999/xlink" x="0px" y="0px"
	 width="209.76px" height="209.76px" viewBox="0 0 209.76 209.76" enable-background="new 0 0 209.76 209.76" xml:space="preserve">
<path d="M151.485,14.186c-17.928,2.637-34.436,5.691-48.818,10.568C90.823,28.77,69.055,35.938,68.705,50.118
	c-0.293,11.934,17.294,19.704,26.887,23.25c6.298,2.327,13.363,3.819,20.519,5.637c14.164,3.597,29.898,5.215,42.453,9.864
	c13.869,5.135,25.789,16.602,13.441,29.592c-9.888,10.399-26.947,16.674-43.158,22.544c-16.607,6.016-34.324,10.94-51.651,13.387
	c22.759-7.836,45.776-12.601,66.507-25.363c5.463-3.361,14.082-8.862,14.151-16.203c0.103-10.813-14.918-14.593-24.057-17.615
	c-30.902-10.222-72.223-11.85-94.103-28.888c-6.365-4.955-13.756-14.014-9.905-26.068c2.533-7.928,19.263-20.126,27.594-24.659
	C84.349,0.928,124.301-0.277,151.485,14.186z"/>
<path d="M203.845,82.527c-23.931-9.431-57.426-10.604-84.904-19.021c-7.195-2.205-21.563-6.097-21.934-12.683
	c-0.51-9.087,21.778-14.366,29.717-16.908c15.073-4.828,26.479-7.329,38.914-9.865C184.456,37.483,197.313,56.854,203.845,82.527z"
	/>
<path d="M14.225,64.208c0.603-0.128,0.668,0.274,0.708,0.706c11.664,25.34,50.636,29.155,79.244,41.567
	c7.338,3.185,16.765,7.595,16.98,14.797c0.404,13.592-27.107,21.409-37.499,25.362c-16.017,6.093-31.948,10.692-48.113,14.796
	C6.019,142.122-0.239,93.652,14.225,64.208z"/>
<path d="M204.551,118.461c0.804,0.134,0.396,0.706,0,0.703c-2.915,19.259-10.673,35.782-21.226,48.613
	c-17.219,20.938-47.045,37.643-81.366,35.934c-28.54-1.422-52.31-14.945-67.922-31c-1.775-1.824-4.903-4.089-4.954-7.045
	c41.617,1.377,84.693-6.83,121.695-19.024c3.164-1.042,6.802-2.34,9.906-3.521C175.644,137.42,195.051,128.313,204.551,118.461z"/>
</svg>
