<?xml version="1.0" encoding="utf-8"?>
<!-- Generator: Adobe Illustrator 15.0.0, SVG Export Plug-In . SVG Version: 6.00 Build 0)  -->
<!DOCTYPE svg PUBLIC "-//W3C//DTD SVG 1.1//EN" "http://www.w3.org/Graphics/SVG/1.1/DTD/svg11.dtd">
<svg version="1.1" id="Layer_1" xmlns="http://www.w3.org/2000/svg" xmlns:xlink="http://www.w3.org/1999/xlink" x="0px" y="0px"
	 width="209.76px" height="209.76px" viewBox="0 0 209.76 209.76" enable-background="new 0 0 209.76 209.76" xml:space="preserve">
<path fill-rule="evenodd" clip-rule="evenodd" fill="#FFFFFF" d="M151.486,14.186c-17.928,2.637-34.436,5.691-48.819,10.568
	C90.823,28.77,69.055,35.938,68.705,50.118c-0.293,11.934,17.294,19.705,26.887,23.25c6.298,2.328,13.363,3.82,20.519,5.637
	c14.164,3.597,29.898,5.215,42.452,9.864c13.87,5.135,25.79,16.602,13.442,29.592c-9.888,10.4-26.948,16.674-43.159,22.544
	c-16.607,6.016-34.323,10.941-51.65,13.387c22.759-7.836,45.775-12.601,66.507-25.363c5.463-3.362,14.082-8.863,14.151-16.204
	c0.103-10.812-14.918-14.592-24.056-17.615c-30.902-10.221-72.223-11.849-94.103-28.887c-6.365-4.956-13.756-14.014-9.905-26.069
	c2.533-7.928,19.263-20.126,27.594-24.659C84.349,0.928,124.301-0.277,151.486,14.186z"/>
<path fill-rule="evenodd" clip-rule="evenodd" fill="#FFFFFF" d="M203.845,82.527c-23.931-9.431-57.426-10.604-84.905-19.022
	c-7.195-2.205-21.563-6.097-21.933-12.682c-0.51-9.087,21.778-14.367,29.717-16.909c15.073-4.828,26.479-7.329,38.914-9.865
	C184.456,37.483,197.314,56.854,203.845,82.527z"/>
<path fill-rule="evenodd" clip-rule="evenodd" fill="#FFFFFF" d="M14.225,64.208c0.603-0.128,0.668,0.275,0.708,0.706
	c11.664,25.34,50.636,29.156,79.244,41.568c7.338,3.184,16.766,7.594,16.98,14.797c0.405,13.591-27.107,21.409-37.499,25.362
	c-16.017,6.093-31.948,10.692-48.113,14.796C6.019,142.122-0.239,93.652,14.225,64.208z"/>
<path fill-rule="evenodd" clip-rule="evenodd" fill="#FFFFFF" d="M204.551,118.461c0.804,0.134,0.395,0.706,0,0.703
	c-2.915,19.259-10.673,35.783-21.226,48.614c-17.218,20.938-47.045,37.642-81.366,35.933c-28.54-1.422-52.31-14.945-67.922-31
	c-1.775-1.824-4.903-4.089-4.954-7.045c41.617,1.377,84.694-6.83,121.695-19.024c3.164-1.042,6.802-2.34,9.906-3.522
	C175.644,137.42,195.051,128.313,204.551,118.461z"/>
</svg>
